<svg width="400" height="479" viewBox="0 0 400 479" fill="none" xmlns="http://www.w3.org/2000/svg">
<circle cx="200" cy="200" r="200" fill="#E1011C"/>
<g clip-path="url(#clip0_64_1373)">
<path d="M296.615 141.202C298.958 142.122 301.519 142.665 304.167 142.665C315.668 142.665 325 133.333 325 121.831C325 110.33 315.668 100.998 304.167 100.998C292.665 100.998 283.333 110.33 283.333 121.831C283.333 122.862 283.496 123.893 283.659 124.924L242.261 158.018C239.931 157.074 237.37 156.554 234.722 156.554C232.075 156.554 229.514 157.096 227.179 158.018L185.807 124.922C185.938 123.893 186.111 122.864 186.111 121.831C186.111 110.33 176.78 100.998 165.278 100.998C153.776 100.998 144.444 110.33 144.444 121.831C144.444 123.676 144.77 125.466 145.204 127.148L101.15 171.202C99.4705 170.79 97.678 170.442 95.8333 170.442C84.3316 170.442 75 179.774 75 191.276C75 202.778 84.3316 212.109 95.8333 212.109C107.335 212.109 116.667 202.778 116.667 191.276C116.667 189.431 116.341 187.641 115.907 185.959L159.961 141.905C161.632 142.339 163.455 142.665 165.278 142.665C167.936 142.665 170.095 142.122 172.821 141.2L214.219 174.294C214.063 175.304 213.889 176.345 213.889 177.387C213.889 188.889 223.22 198.22 234.722 198.22C246.224 198.22 255.556 188.889 255.556 177.387C255.556 176.356 255.393 175.325 255.23 174.294L296.615 141.202ZM241.667 239.887H227.778C220.109 239.887 213.889 246.107 213.889 253.776V309.331C213.889 317.001 220.109 323.22 227.778 323.22H241.667C249.336 323.22 255.556 317.001 255.556 309.331V253.776C255.556 246.094 249.349 239.887 241.667 239.887ZM311.111 184.331H297.222C289.553 184.331 283.333 190.551 283.333 198.22V309.331C283.333 317.001 289.553 323.22 297.222 323.22H311.111C318.78 323.22 325 317.001 325 309.331V198.22C325 190.538 318.793 184.331 311.111 184.331ZM172.222 184.331H158.333C150.651 184.331 144.444 190.538 144.444 198.22V309.331C144.444 317.001 150.664 323.22 158.333 323.22H172.222C179.891 323.22 186.111 317.001 186.111 309.331V198.22C186.111 190.538 179.905 184.331 172.222 184.331ZM102.778 253.776H88.8889C81.2196 253.776 75 259.995 75 267.665V309.331C75 317.001 81.2196 323.22 88.8889 323.22H102.778C110.447 323.22 116.667 317.001 116.667 309.331V267.665C116.667 259.982 110.447 253.776 102.778 253.776Z" fill="white"/>
</g>
<path d="M63.3 122.894V92.81C63.3 92.5034 63.392 92.258 63.576 92.074C63.7907 91.8594 64.0513 91.752 64.358 91.752H68.682C68.9887 91.752 69.234 91.8594 69.418 92.074C69.6327 92.258 69.74 92.5034 69.74 92.81V103.574C69.74 103.881 69.832 104.141 70.016 104.356C70.2307 104.54 70.4913 104.632 70.798 104.632H88.002C88.3087 104.632 88.554 104.54 88.738 104.356C88.9527 104.141 89.06 103.881 89.06 103.574V92.81C89.06 92.5034 89.152 92.258 89.336 92.074C89.5507 91.8594 89.8113 91.752 90.118 91.752H94.442C94.7487 91.752 94.994 91.8594 95.178 92.074C95.3927 92.258 95.5 92.5034 95.5 92.81V122.894C95.5 123.201 95.3927 123.461 95.178 123.676C94.994 123.86 94.7487 123.952 94.442 123.952H90.118C89.8113 123.952 89.5507 123.86 89.336 123.676C89.152 123.461 89.06 123.201 89.06 122.894V112.13C89.06 111.823 88.9527 111.578 88.738 111.394C88.554 111.179 88.3087 111.072 88.002 111.072H70.798C70.4913 111.072 70.2307 111.179 70.016 111.394C69.832 111.578 69.74 111.823 69.74 112.13V122.894C69.74 123.201 69.6327 123.461 69.418 123.676C69.234 123.86 68.9887 123.952 68.682 123.952H64.358C64.0513 123.952 63.7907 123.86 63.576 123.676C63.392 123.461 63.3 123.201 63.3 122.894ZM100.136 122.894V92.81C100.136 92.5034 100.228 92.258 100.412 92.074C100.627 91.8594 100.887 91.752 101.194 91.752H105.518C105.825 91.752 106.07 91.8594 106.254 92.074C106.469 92.258 106.576 92.5034 106.576 92.81V103.574C106.576 103.881 106.668 104.141 106.852 104.356C107.067 104.54 107.327 104.632 107.634 104.632H124.838C125.145 104.632 125.39 104.54 125.574 104.356C125.789 104.141 125.896 103.881 125.896 103.574V92.81C125.896 92.5034 125.988 92.258 126.172 92.074C126.387 91.8594 126.647 91.752 126.954 91.752H131.278C131.585 91.752 131.83 91.8594 132.014 92.074C132.229 92.258 132.336 92.5034 132.336 92.81V122.894C132.336 123.201 132.229 123.461 132.014 123.676C131.83 123.86 131.585 123.952 131.278 123.952H126.954C126.647 123.952 126.387 123.86 126.172 123.676C125.988 123.461 125.896 123.201 125.896 122.894V112.13C125.896 111.823 125.789 111.578 125.574 111.394C125.39 111.179 125.145 111.072 124.838 111.072H107.634C107.327 111.072 107.067 111.179 106.852 111.394C106.668 111.578 106.576 111.823 106.576 112.13V122.894C106.576 123.201 106.469 123.461 106.254 123.676C106.07 123.86 105.825 123.952 105.518 123.952H101.194C100.887 123.952 100.627 123.86 100.412 123.676C100.228 123.461 100.136 123.201 100.136 122.894Z" fill="white"/>
<g clip-path="url(#clip1_64_1373)">
<path d="M239.703 98.2793L238.742 98.0098C234.066 96.7441 234.207 96.0293 234.359 95.209C234.621 93.8121 237.275 93.1195 240.509 93.5777C241.352 93.7004 242.417 93.9696 243.768 94.3999C245.252 94.8814 246.834 94.0575 247.303 92.5765C247.775 91.0976 246.958 89.5155 245.479 89.0421C244.03 88.5786 242.871 88.2953 241.82 88.1118V85.998C241.82 84.4453 240.56 83.1855 239.007 83.1855C237.454 83.1855 236.195 84.4453 236.195 85.998V88.016C232.238 88.6465 229.461 90.8379 228.828 94.166C227.584 100.814 234.369 102.655 237.266 103.443L238.273 103.71C243.423 105.07 243.849 105.663 243.638 106.79C243.374 108.186 240.724 108.883 237.47 108.42C236.164 108.24 234.441 107.701 233.129 107.232L232.379 106.975C230.894 106.493 229.312 107.295 228.83 108.772C228.347 110.248 229.153 111.836 230.628 112.321L231.353 112.561C232.858 113.062 234.544 113.591 236.198 113.878V115.998C236.198 117.551 237.458 118.811 239.01 118.811C240.563 118.811 241.823 117.551 241.823 115.998V113.984C245.77 113.35 248.547 111.157 249.173 107.828C250.426 101.104 243.723 99.334 239.703 98.2793ZM239 70.998C222.43 70.998 209 84.4277 209 100.998C209 117.568 222.43 130.998 239 130.998C255.57 130.998 269 117.568 269 100.998C269 84.4277 255.57 70.998 239 70.998ZM239 125.373C225.559 125.373 214.625 114.438 214.625 100.998C214.625 87.5578 225.559 76.623 239 76.623C252.441 76.623 263.375 87.5578 263.375 100.998C263.375 114.438 252.441 125.373 239 125.373Z" fill="white"/>
</g>
<path d="M18.6 417.08C18.6 415.843 19.0373 414.787 19.912 413.912C20.7867 413.037 21.8427 412.6 23.08 412.6H37.992C38.2053 412.6 38.3867 412.675 38.536 412.824C38.6853 412.973 38.76 413.144 38.76 413.336V416.344C38.76 416.557 38.6853 416.739 38.536 416.888C38.3867 417.016 38.2053 417.08 37.992 417.08H23.816C23.6027 417.08 23.4213 417.155 23.272 417.304C23.144 417.453 23.08 417.624 23.08 417.816V420.792C23.08 421.005 23.144 421.187 23.272 421.336C23.4213 421.485 23.6027 421.56 23.816 421.56H36.52C37.7573 421.56 38.8027 421.997 39.656 422.872C40.5307 423.747 40.968 424.803 40.968 426.04V430.52C40.968 431.757 40.5307 432.813 39.656 433.688C38.8027 434.563 37.7573 435 36.52 435C34.8773 435 32.072 435 28.104 435C24.136 434.979 21.2133 434.968 19.336 434.968C19.1227 434.968 18.9413 434.904 18.792 434.776C18.664 434.627 18.6 434.445 18.6 434.232V431.256C18.6 431.043 18.664 430.872 18.792 430.744C18.9413 430.595 19.1227 430.52 19.336 430.52H35.752C35.9653 430.52 36.1467 430.445 36.296 430.296C36.4453 430.147 36.52 429.965 36.52 429.752V426.776C36.52 426.584 36.4453 426.413 36.296 426.264C36.1467 426.115 35.9653 426.04 35.752 426.04H23.08C21.8427 426.04 20.7867 425.603 19.912 424.728C19.0373 423.853 18.6 422.797 18.6 421.56V417.08ZM61.034 417.08H49.066C48.8527 417.08 48.6713 417.155 48.522 417.304C48.394 417.432 48.33 417.603 48.33 417.816V425.304C48.33 425.517 48.394 425.699 48.522 425.848C48.6713 425.976 48.8527 426.04 49.066 426.04H61.034C61.2473 426.04 61.418 425.976 61.546 425.848C61.6953 425.699 61.77 425.517 61.77 425.304V417.816C61.77 417.603 61.6953 417.432 61.546 417.304C61.418 417.155 61.2473 417.08 61.034 417.08ZM43.85 434.264V417.08C43.85 415.843 44.2873 414.787 45.162 413.912C46.0367 413.037 47.0927 412.6 48.33 412.6H61.77C63.0073 412.6 64.0633 413.037 64.938 413.912C65.8127 414.787 66.25 415.843 66.25 417.08V434.264C66.25 434.477 66.1753 434.659 66.026 434.808C65.898 434.936 65.7273 435 65.514 435H62.506C62.2927 435 62.1113 434.936 61.962 434.808C61.834 434.659 61.77 434.477 61.77 434.264V431.256C61.77 431.043 61.6953 430.872 61.546 430.744C61.418 430.595 61.2473 430.52 61.034 430.52H49.066C48.8527 430.52 48.6713 430.595 48.522 430.744C48.394 430.872 48.33 431.043 48.33 431.256V434.264C48.33 434.477 48.2553 434.659 48.106 434.808C47.978 434.936 47.8073 435 47.594 435H44.586C44.3727 435 44.1913 434.936 44.042 434.808C43.914 434.659 43.85 434.477 43.85 434.264ZM69.4438 430.52V413.336C69.4438 413.123 69.5078 412.952 69.6358 412.824C69.7851 412.675 69.9664 412.6 70.1798 412.6H73.1878C73.4011 412.6 73.5718 412.675 73.6998 412.824C73.8491 412.952 73.9238 413.123 73.9238 413.336V429.784C73.9238 429.997 73.9878 430.179 74.1158 430.328C74.2651 430.456 74.4464 430.52 74.6598 430.52H88.8678C89.0811 430.52 89.2518 430.595 89.3798 430.744C89.5291 430.872 89.6038 431.043 89.6038 431.256V434.264C89.6038 434.477 89.5291 434.659 89.3798 434.808C89.2518 434.936 89.0811 435 88.8678 435H73.9238C72.6864 435 71.6304 434.563 70.7558 433.688C69.8811 432.813 69.4438 431.757 69.4438 430.52ZM110.034 417.08H98.066C97.8527 417.08 97.6713 417.155 97.522 417.304C97.394 417.432 97.33 417.603 97.33 417.816V425.304C97.33 425.517 97.394 425.699 97.522 425.848C97.6713 425.976 97.8527 426.04 98.066 426.04H110.034C110.247 426.04 110.418 425.976 110.546 425.848C110.695 425.699 110.77 425.517 110.77 425.304V417.816C110.77 417.603 110.695 417.432 110.546 417.304C110.418 417.155 110.247 417.08 110.034 417.08ZM92.85 434.264V417.08C92.85 415.843 93.2873 414.787 94.162 413.912C95.0367 413.037 96.0927 412.6 97.33 412.6H110.77C112.007 412.6 113.063 413.037 113.938 413.912C114.813 414.787 115.25 415.843 115.25 417.08V434.264C115.25 434.477 115.175 434.659 115.026 434.808C114.898 434.936 114.727 435 114.514 435H111.506C111.293 435 111.111 434.936 110.962 434.808C110.834 434.659 110.77 434.477 110.77 434.264V431.256C110.77 431.043 110.695 430.872 110.546 430.744C110.418 430.595 110.247 430.52 110.034 430.52H98.066C97.8527 430.52 97.6713 430.595 97.522 430.744C97.394 430.872 97.33 431.043 97.33 431.256V434.264C97.33 434.477 97.2553 434.659 97.106 434.808C96.978 434.936 96.8073 435 96.594 435H93.586C93.3727 435 93.1913 434.936 93.042 434.808C92.914 434.659 92.85 434.477 92.85 434.264ZM135.628 417.08H123.66C123.446 417.08 123.265 417.155 123.116 417.304C122.988 417.432 122.924 417.603 122.924 417.816V425.304C122.924 425.517 122.988 425.699 123.116 425.848C123.265 425.976 123.446 426.04 123.66 426.04H135.628C135.841 426.04 136.012 425.976 136.14 425.848C136.289 425.699 136.364 425.517 136.364 425.304V417.816C136.364 417.603 136.289 417.432 136.14 417.304C136.012 417.155 135.841 417.08 135.628 417.08ZM140.844 417.08V426.04C140.844 427.277 140.406 428.333 139.532 429.208C138.657 430.083 137.601 430.52 136.364 430.52H134.86C134.732 430.52 134.636 430.584 134.572 430.712C134.529 430.84 134.55 430.947 134.636 431.032L138.092 434.456C138.156 434.563 138.177 434.68 138.156 434.808C138.092 434.936 137.996 435 137.868 435H133.004C132.492 435 132.076 434.819 131.756 434.456L128.332 431.032C127.948 430.691 127.521 430.52 127.052 430.52H123.66C123.446 430.52 123.265 430.595 123.116 430.744C122.988 430.872 122.924 431.043 122.924 431.256V434.264C122.924 434.477 122.849 434.659 122.7 434.808C122.572 434.936 122.401 435 122.188 435H119.18C118.966 435 118.785 434.936 118.636 434.808C118.508 434.659 118.444 434.477 118.444 434.264V417.08C118.444 415.843 118.881 414.787 119.756 413.912C120.63 413.037 121.686 412.6 122.924 412.6H136.364C137.601 412.6 138.657 413.037 139.532 413.912C140.406 414.787 140.844 415.843 140.844 417.08ZM144.069 413.336C144.069 413.123 144.133 412.952 144.261 412.824C144.41 412.675 144.591 412.6 144.805 412.6H147.813C148.026 412.6 148.197 412.675 148.325 412.824C148.474 412.952 148.549 413.123 148.549 413.336V425.304C148.549 425.517 148.613 425.699 148.741 425.848C148.89 425.976 149.071 426.04 149.285 426.04H161.253C161.466 426.04 161.637 425.976 161.765 425.848C161.914 425.699 161.989 425.517 161.989 425.304V413.336C161.989 413.123 162.053 412.952 162.181 412.824C162.33 412.675 162.511 412.6 162.725 412.6H165.733C165.946 412.6 166.117 412.675 166.245 412.824C166.394 412.952 166.469 413.123 166.469 413.336V426.04C166.469 427.277 166.031 428.333 165.157 429.208C164.282 430.083 163.226 430.52 161.989 430.52H158.245C158.031 430.52 157.85 430.595 157.701 430.744C157.573 430.872 157.509 431.043 157.509 431.256V434.264C157.509 434.477 157.434 434.659 157.285 434.808C157.157 434.936 156.986 435 156.773 435H153.765C153.551 435 153.37 434.936 153.221 434.808C153.093 434.659 153.029 434.477 153.029 434.264V431.256C153.029 431.043 152.954 430.872 152.805 430.744C152.677 430.595 152.506 430.52 152.293 430.52H148.549C147.311 430.52 146.255 430.083 145.381 429.208C144.506 428.333 144.069 427.277 144.069 426.04V413.336ZM194.878 417.08H182.91C182.696 417.08 182.515 417.155 182.366 417.304C182.238 417.432 182.174 417.603 182.174 417.816V425.304C182.174 425.517 182.238 425.699 182.366 425.848C182.515 425.976 182.696 426.04 182.91 426.04H194.878C195.091 426.04 195.262 425.976 195.39 425.848C195.539 425.699 195.614 425.517 195.614 425.304V417.816C195.614 417.603 195.539 417.432 195.39 417.304C195.262 417.155 195.091 417.08 194.878 417.08ZM177.694 434.264V417.08C177.694 415.843 178.131 414.787 179.006 413.912C179.88 413.037 180.936 412.6 182.174 412.6H195.614C196.851 412.6 197.907 413.037 198.782 413.912C199.656 414.787 200.094 415.843 200.094 417.08V426.04C200.094 427.277 199.656 428.333 198.782 429.208C197.907 430.083 196.851 430.52 195.614 430.52H182.91C182.696 430.52 182.515 430.595 182.366 430.744C182.238 430.872 182.174 431.043 182.174 431.256V434.264C182.174 434.477 182.099 434.659 181.95 434.808C181.822 434.936 181.651 435 181.438 435H178.43C178.216 435 178.035 434.936 177.886 434.808C177.758 434.659 177.694 434.477 177.694 434.264ZM220.503 417.08H208.535C208.321 417.08 208.14 417.155 207.991 417.304C207.863 417.432 207.799 417.603 207.799 417.816V425.304C207.799 425.517 207.863 425.699 207.991 425.848C208.14 425.976 208.321 426.04 208.535 426.04H220.503C220.716 426.04 220.887 425.976 221.015 425.848C221.164 425.699 221.239 425.517 221.239 425.304V417.816C221.239 417.603 221.164 417.432 221.015 417.304C220.887 417.155 220.716 417.08 220.503 417.08ZM225.719 417.08V426.04C225.719 427.277 225.281 428.333 224.407 429.208C223.532 430.083 222.476 430.52 221.239 430.52H219.735C219.607 430.52 219.511 430.584 219.447 430.712C219.404 430.84 219.425 430.947 219.511 431.032L222.967 434.456C223.031 434.563 223.052 434.68 223.031 434.808C222.967 434.936 222.871 435 222.743 435H217.879C217.367 435 216.951 434.819 216.631 434.456L213.207 431.032C212.823 430.691 212.396 430.52 211.927 430.52H208.535C208.321 430.52 208.14 430.595 207.991 430.744C207.863 430.872 207.799 431.043 207.799 431.256V434.264C207.799 434.477 207.724 434.659 207.575 434.808C207.447 434.936 207.276 435 207.063 435H204.055C203.841 435 203.66 434.936 203.511 434.808C203.383 434.659 203.319 434.477 203.319 434.264V417.08C203.319 415.843 203.756 414.787 204.631 413.912C205.505 413.037 206.561 412.6 207.799 412.6H221.239C222.476 412.6 223.532 413.037 224.407 413.912C225.281 414.787 225.719 415.843 225.719 417.08ZM228.944 430.52V417.08C228.944 415.843 229.381 414.787 230.256 413.912C231.13 413.037 232.186 412.6 233.424 412.6H248.368C248.581 412.6 248.752 412.675 248.88 412.824C249.029 412.952 249.104 413.123 249.104 413.336V416.344C249.104 416.557 249.029 416.739 248.88 416.888C248.752 417.016 248.581 417.08 248.368 417.08H234.16C233.946 417.08 233.765 417.155 233.616 417.304C233.488 417.432 233.424 417.603 233.424 417.816V420.824C233.424 421.037 233.488 421.219 233.616 421.368C233.765 421.496 233.946 421.56 234.16 421.56H248.368C248.581 421.56 248.752 421.635 248.88 421.784C249.029 421.912 249.104 422.083 249.104 422.296V425.304C249.104 425.517 249.029 425.699 248.88 425.848C248.752 425.976 248.581 426.04 248.368 426.04H234.16C233.946 426.04 233.765 426.115 233.616 426.264C233.488 426.392 233.424 426.563 233.424 426.776V429.784C233.424 429.997 233.488 430.179 233.616 430.328C233.765 430.456 233.946 430.52 234.16 430.52H248.368C248.581 430.52 248.752 430.595 248.88 430.744C249.029 430.872 249.104 431.043 249.104 431.256V434.264C249.104 434.477 249.029 434.659 248.88 434.808C248.752 434.936 248.581 435 248.368 435H233.424C232.186 435 231.13 434.563 230.256 433.688C229.381 432.813 228.944 431.757 228.944 430.52ZM252.35 413.336C252.35 413.123 252.414 412.952 252.542 412.824C252.691 412.675 252.873 412.6 253.086 412.6H270.27C271.507 412.6 272.563 413.037 273.438 413.912C274.313 414.787 274.75 415.843 274.75 417.08V430.52C274.75 431.757 274.313 432.813 273.438 433.688C272.563 434.563 271.507 435 270.27 435H253.086C252.873 435 252.691 434.936 252.542 434.808C252.414 434.659 252.35 434.477 252.35 434.264V413.336ZM257.566 417.08C257.353 417.08 257.171 417.155 257.022 417.304C256.894 417.432 256.83 417.603 256.83 417.816V429.784C256.83 429.997 256.894 430.179 257.022 430.328C257.171 430.456 257.353 430.52 257.566 430.52H269.534C269.747 430.52 269.918 430.456 270.046 430.328C270.195 430.179 270.27 429.997 270.27 429.784V417.816C270.27 417.603 270.195 417.432 270.046 417.304C269.918 417.155 269.747 417.08 269.534 417.08H257.566ZM282.455 434.264C282.455 434.477 282.38 434.659 282.231 434.808C282.103 434.936 281.932 435 281.719 435H278.711C278.498 435 278.316 434.936 278.167 434.808C278.039 434.659 277.975 434.477 277.975 434.264V413.336C277.975 413.123 278.039 412.952 278.167 412.824C278.316 412.675 278.498 412.6 278.711 412.6H281.719C281.932 412.6 282.103 412.675 282.231 412.824C282.38 412.952 282.455 413.123 282.455 413.336V434.264ZM285.038 430.52V417.08C285.038 415.843 285.475 414.787 286.35 413.912C287.224 413.037 288.28 412.6 289.518 412.6H304.462C304.675 412.6 304.846 412.675 304.974 412.824C305.123 412.952 305.198 413.123 305.198 413.336V416.344C305.198 416.557 305.123 416.739 304.974 416.888C304.846 417.016 304.675 417.08 304.462 417.08H290.254C290.04 417.08 289.859 417.155 289.71 417.304C289.582 417.432 289.518 417.603 289.518 417.816V429.784C289.518 429.997 289.582 430.179 289.71 430.328C289.859 430.456 290.04 430.52 290.254 430.52H304.462C304.675 430.52 304.846 430.595 304.974 430.744C305.123 430.872 305.198 431.043 305.198 431.256V434.264C305.198 434.477 305.123 434.659 304.974 434.808C304.846 434.936 304.675 435 304.462 435H289.518C288.28 435 287.224 434.563 286.35 433.688C285.475 432.813 285.038 431.757 285.038 430.52ZM308.131 413.336C308.131 413.123 308.195 412.952 308.323 412.824C308.473 412.675 308.654 412.6 308.867 412.6H329.795C330.009 412.6 330.179 412.675 330.307 412.824C330.457 412.952 330.531 413.123 330.531 413.336V416.344C330.531 416.557 330.457 416.739 330.307 416.888C330.179 417.016 330.009 417.08 329.795 417.08H322.307C322.094 417.08 321.913 417.155 321.763 417.304C321.635 417.432 321.571 417.603 321.571 417.816V434.264C321.571 434.477 321.497 434.659 321.347 434.808C321.219 434.936 321.049 435 320.835 435H317.827C317.614 435 317.433 434.936 317.283 434.808C317.155 434.659 317.091 434.477 317.091 434.264V417.816C317.091 417.603 317.017 417.432 316.867 417.304C316.739 417.155 316.569 417.08 316.355 417.08H308.867C308.654 417.08 308.473 417.016 308.323 416.888C308.195 416.739 308.131 416.557 308.131 416.344V413.336ZM333.131 430.52V417.08C333.131 415.843 333.569 414.787 334.443 413.912C335.318 413.037 336.374 412.6 337.611 412.6H351.051C352.289 412.6 353.345 413.037 354.219 413.912C355.094 414.787 355.531 415.843 355.531 417.08V430.52C355.531 431.757 355.094 432.813 354.219 433.688C353.345 434.563 352.289 435 351.051 435H337.611C336.374 435 335.318 434.563 334.443 433.688C333.569 432.813 333.131 431.757 333.131 430.52ZM338.347 430.52H350.315C350.529 430.52 350.699 430.456 350.827 430.328C350.977 430.179 351.051 429.997 351.051 429.784V417.816C351.051 417.603 350.977 417.432 350.827 417.304C350.699 417.155 350.529 417.08 350.315 417.08H338.347C338.134 417.08 337.953 417.155 337.803 417.304C337.675 417.432 337.611 417.603 337.611 417.816V429.784C337.611 429.997 337.675 430.179 337.803 430.328C337.953 430.456 338.134 430.52 338.347 430.52ZM375.597 417.08H363.629C363.415 417.08 363.234 417.155 363.085 417.304C362.957 417.432 362.893 417.603 362.893 417.816V425.304C362.893 425.517 362.957 425.699 363.085 425.848C363.234 425.976 363.415 426.04 363.629 426.04H375.597C375.81 426.04 375.981 425.976 376.109 425.848C376.258 425.699 376.333 425.517 376.333 425.304V417.816C376.333 417.603 376.258 417.432 376.109 417.304C375.981 417.155 375.81 417.08 375.597 417.08ZM380.813 417.08V426.04C380.813 427.277 380.375 428.333 379.501 429.208C378.626 430.083 377.57 430.52 376.333 430.52H374.829C374.701 430.52 374.605 430.584 374.541 430.712C374.498 430.84 374.519 430.947 374.605 431.032L378.061 434.456C378.125 434.563 378.146 434.68 378.125 434.808C378.061 434.936 377.965 435 377.837 435H372.972C372.461 435 372.045 434.819 371.725 434.456L368.301 431.032C367.917 430.691 367.49 430.52 367.021 430.52H363.629C363.415 430.52 363.234 430.595 363.085 430.744C362.957 430.872 362.893 431.043 362.893 431.256V434.264C362.893 434.477 362.818 434.659 362.669 434.808C362.541 434.936 362.37 435 362.157 435H359.149C358.935 435 358.754 434.936 358.605 434.808C358.477 434.659 358.413 434.477 358.413 434.264V417.08C358.413 415.843 358.85 414.787 359.725 413.912C360.599 413.037 361.655 412.6 362.893 412.6H376.333C377.57 412.6 378.626 413.037 379.501 413.912C380.375 414.787 380.813 415.843 380.813 417.08Z" fill="#E1011C"/>
<path d="M84.816 465.52H96.784C96.9973 465.52 97.168 465.456 97.296 465.328C97.4453 465.179 97.52 464.997 97.52 464.784V461.776C97.52 461.563 97.4453 461.392 97.296 461.264C97.168 461.115 96.9973 461.04 96.784 461.04H84.816C84.6027 461.04 84.4213 461.115 84.272 461.264C84.144 461.392 84.08 461.563 84.08 461.776V464.784C84.08 464.997 84.144 465.179 84.272 465.328C84.4213 465.456 84.6027 465.52 84.816 465.52ZM84.816 456.56H96.784C96.9973 456.56 97.168 456.496 97.296 456.368C97.4453 456.219 97.52 456.037 97.52 455.824V452.816C97.52 452.603 97.4453 452.432 97.296 452.304C97.168 452.155 96.9973 452.08 96.784 452.08H84.816C84.6027 452.08 84.4213 452.155 84.272 452.304C84.144 452.432 84.08 452.603 84.08 452.816V455.824C84.08 456.037 84.144 456.219 84.272 456.368C84.4213 456.496 84.6027 456.56 84.816 456.56ZM79.6 465.52V452.08C79.6 450.843 80.0373 449.787 80.912 448.912C81.7867 448.037 82.8427 447.6 84.08 447.6H97.52C98.7573 447.6 99.8133 448.037 100.688 448.912C101.563 449.787 102 450.843 102 452.08V454.96C102 456.027 101.627 456.933 100.88 457.68L99.76 458.8L100.88 459.92C101.627 460.667 102 461.573 102 462.64V465.52C102 466.757 101.563 467.813 100.688 468.688C99.8133 469.563 98.7573 470 97.52 470H84.08C82.8427 470 81.7867 469.563 80.912 468.688C80.0373 467.813 79.6 466.757 79.6 465.52ZM122.097 452.08H110.129C109.915 452.08 109.734 452.155 109.585 452.304C109.457 452.432 109.393 452.603 109.393 452.816V460.304C109.393 460.517 109.457 460.699 109.585 460.848C109.734 460.976 109.915 461.04 110.129 461.04H122.097C122.31 461.04 122.481 460.976 122.609 460.848C122.758 460.699 122.833 460.517 122.833 460.304V452.816C122.833 452.603 122.758 452.432 122.609 452.304C122.481 452.155 122.31 452.08 122.097 452.08ZM104.913 469.264V452.08C104.913 450.843 105.35 449.787 106.225 448.912C107.099 448.037 108.155 447.6 109.393 447.6H122.833C124.07 447.6 125.126 448.037 126.001 448.912C126.875 449.787 127.313 450.843 127.313 452.08V469.264C127.313 469.477 127.238 469.659 127.089 469.808C126.961 469.936 126.79 470 126.577 470H123.569C123.355 470 123.174 469.936 123.025 469.808C122.897 469.659 122.833 469.477 122.833 469.264V466.256C122.833 466.043 122.758 465.872 122.609 465.744C122.481 465.595 122.31 465.52 122.097 465.52H110.129C109.915 465.52 109.734 465.595 109.585 465.744C109.457 465.872 109.393 466.043 109.393 466.256V469.264C109.393 469.477 109.318 469.659 109.169 469.808C109.041 469.936 108.87 470 108.657 470H105.649C105.435 470 105.254 469.936 105.105 469.808C104.977 469.659 104.913 469.477 104.913 469.264ZM130.506 452.08C130.506 450.843 130.944 449.787 131.818 448.912C132.693 448.037 133.749 447.6 134.986 447.6H149.898C150.112 447.6 150.293 447.675 150.442 447.824C150.592 447.973 150.666 448.144 150.666 448.336V451.344C150.666 451.557 150.592 451.739 150.442 451.888C150.293 452.016 150.112 452.08 149.898 452.08H135.722C135.509 452.08 135.328 452.155 135.178 452.304C135.05 452.453 134.986 452.624 134.986 452.816V455.792C134.986 456.005 135.05 456.187 135.178 456.336C135.328 456.485 135.509 456.56 135.722 456.56H148.426C149.664 456.56 150.709 456.997 151.562 457.872C152.437 458.747 152.874 459.803 152.874 461.04V465.52C152.874 466.757 152.437 467.813 151.562 468.688C150.709 469.563 149.664 470 148.426 470C146.784 470 143.978 470 140.01 470C136.042 469.979 133.12 469.968 131.242 469.968C131.029 469.968 130.848 469.904 130.698 469.776C130.57 469.627 130.506 469.445 130.506 469.232V466.256C130.506 466.043 130.57 465.872 130.698 465.744C130.848 465.595 131.029 465.52 131.242 465.52H147.658C147.872 465.52 148.053 465.445 148.202 465.296C148.352 465.147 148.426 464.965 148.426 464.752V461.776C148.426 461.584 148.352 461.413 148.202 461.264C148.053 461.115 147.872 461.04 147.658 461.04H134.986C133.749 461.04 132.693 460.603 131.818 459.728C130.944 458.853 130.506 457.797 130.506 456.56V452.08ZM155.756 465.52V452.08C155.756 450.843 156.194 449.787 157.068 448.912C157.943 448.037 158.999 447.6 160.236 447.6H175.18C175.394 447.6 175.564 447.675 175.692 447.824C175.842 447.952 175.916 448.123 175.916 448.336V451.344C175.916 451.557 175.842 451.739 175.692 451.888C175.564 452.016 175.394 452.08 175.18 452.08H160.972C160.759 452.08 160.578 452.155 160.428 452.304C160.3 452.432 160.236 452.603 160.236 452.816V455.824C160.236 456.037 160.3 456.219 160.428 456.368C160.578 456.496 160.759 456.56 160.972 456.56H175.18C175.394 456.56 175.564 456.635 175.692 456.784C175.842 456.912 175.916 457.083 175.916 457.296V460.304C175.916 460.517 175.842 460.699 175.692 460.848C175.564 460.976 175.394 461.04 175.18 461.04H160.972C160.759 461.04 160.578 461.115 160.428 461.264C160.3 461.392 160.236 461.563 160.236 461.776V464.784C160.236 464.997 160.3 465.179 160.428 465.328C160.578 465.456 160.759 465.52 160.972 465.52H175.18C175.394 465.52 175.564 465.595 175.692 465.744C175.842 465.872 175.916 466.043 175.916 466.256V469.264C175.916 469.477 175.842 469.659 175.692 469.808C175.564 469.936 175.394 470 175.18 470H160.236C158.999 470 157.943 469.563 157.068 468.688C156.194 467.813 155.756 466.757 155.756 465.52ZM179.163 448.336C179.163 448.123 179.227 447.952 179.355 447.824C179.504 447.675 179.685 447.6 179.899 447.6H197.083C198.32 447.6 199.376 448.037 200.251 448.912C201.125 449.787 201.563 450.843 201.563 452.08V465.52C201.563 466.757 201.125 467.813 200.251 468.688C199.376 469.563 198.32 470 197.083 470H179.899C179.685 470 179.504 469.936 179.355 469.808C179.227 469.659 179.163 469.477 179.163 469.264V448.336ZM184.379 452.08C184.165 452.08 183.984 452.155 183.835 452.304C183.707 452.432 183.643 452.603 183.643 452.816V464.784C183.643 464.997 183.707 465.179 183.835 465.328C183.984 465.456 184.165 465.52 184.379 465.52H196.347C196.56 465.52 196.731 465.456 196.859 465.328C197.008 465.179 197.083 464.997 197.083 464.784V452.816C197.083 452.603 197.008 452.432 196.859 452.304C196.731 452.155 196.56 452.08 196.347 452.08H184.379ZM212.788 465.52V452.08C212.788 450.843 213.225 449.787 214.1 448.912C214.974 448.037 216.03 447.6 217.268 447.6H230.708C231.945 447.6 233.001 448.037 233.876 448.912C234.75 449.787 235.188 450.843 235.188 452.08V465.52C235.188 466.757 234.75 467.813 233.876 468.688C233.001 469.563 231.945 470 230.708 470H217.268C216.03 470 214.974 469.563 214.1 468.688C213.225 467.813 212.788 466.757 212.788 465.52ZM218.004 465.52H229.972C230.185 465.52 230.356 465.456 230.484 465.328C230.633 465.179 230.708 464.997 230.708 464.784V452.816C230.708 452.603 230.633 452.432 230.484 452.304C230.356 452.155 230.185 452.08 229.972 452.08H218.004C217.79 452.08 217.609 452.155 217.46 452.304C217.332 452.432 217.268 452.603 217.268 452.816V464.784C217.268 464.997 217.332 465.179 217.46 465.328C217.609 465.456 217.79 465.52 218.004 465.52ZM238.381 469.264V448.336C238.381 448.144 238.456 447.973 238.605 447.824C238.755 447.675 238.936 447.6 239.149 447.6H242.125C242.616 447.6 243.032 447.792 243.373 448.176L255.821 462.576C255.907 462.661 256.013 462.693 256.141 462.672C256.248 462.629 256.301 462.544 256.301 462.416V448.336C256.301 448.144 256.376 447.973 256.525 447.824C256.675 447.675 256.845 447.6 257.037 447.6H260.045C260.259 447.6 260.429 447.675 260.557 447.824C260.707 447.973 260.781 448.144 260.781 448.336V469.264C260.781 469.456 260.707 469.627 260.557 469.776C260.429 469.925 260.259 470 260.045 470H257.037C256.525 470 256.12 469.808 255.821 469.424C252.835 466.011 248.685 461.211 243.373 455.024C243.224 454.875 243.096 454.821 242.989 454.864C242.904 454.885 242.861 455.003 242.861 455.216V469.264C242.861 469.456 242.787 469.627 242.637 469.776C242.509 469.925 242.339 470 242.125 470H239.149C238.936 470 238.755 469.925 238.605 469.776C238.456 469.627 238.381 469.456 238.381 469.264ZM271.975 469.232V448.304C271.975 448.091 272.039 447.92 272.167 447.792C272.316 447.643 272.498 447.568 272.711 447.568H275.719C275.932 447.568 276.103 447.643 276.231 447.792C276.38 447.92 276.455 448.091 276.455 448.304V455.792C276.455 456.005 276.519 456.187 276.647 456.336C276.796 456.464 276.978 456.528 277.191 456.528H289.159C289.372 456.528 289.543 456.464 289.671 456.336C289.82 456.187 289.895 456.005 289.895 455.792V448.304C289.895 448.091 289.959 447.92 290.087 447.792C290.236 447.643 290.418 447.568 290.631 447.568H293.639C293.852 447.568 294.023 447.643 294.151 447.792C294.3 447.92 294.375 448.091 294.375 448.304V469.232C294.375 469.445 294.3 469.627 294.151 469.776C294.023 469.904 293.852 469.968 293.639 469.968H290.631C290.418 469.968 290.236 469.904 290.087 469.776C289.959 469.627 289.895 469.445 289.895 469.232V461.744C289.895 461.531 289.82 461.36 289.671 461.232C289.543 461.083 289.372 461.008 289.159 461.008H277.191C276.978 461.008 276.796 461.083 276.647 461.232C276.519 461.36 276.455 461.531 276.455 461.744V469.232C276.455 469.445 276.38 469.627 276.231 469.776C276.103 469.904 275.932 469.968 275.719 469.968H272.711C272.498 469.968 272.316 469.904 272.167 469.776C272.039 469.627 271.975 469.445 271.975 469.232ZM297.6 469.232V448.304C297.6 448.091 297.664 447.92 297.792 447.792C297.941 447.643 298.123 447.568 298.336 447.568H301.344C301.557 447.568 301.728 447.643 301.856 447.792C302.005 447.92 302.08 448.091 302.08 448.304V455.792C302.08 456.005 302.144 456.187 302.272 456.336C302.421 456.464 302.603 456.528 302.816 456.528H314.784C314.997 456.528 315.168 456.464 315.296 456.336C315.445 456.187 315.52 456.005 315.52 455.792V448.304C315.52 448.091 315.584 447.92 315.712 447.792C315.861 447.643 316.043 447.568 316.256 447.568H319.264C319.477 447.568 319.648 447.643 319.776 447.792C319.925 447.92 320 448.091 320 448.304V469.232C320 469.445 319.925 469.627 319.776 469.776C319.648 469.904 319.477 469.968 319.264 469.968H316.256C316.043 469.968 315.861 469.904 315.712 469.776C315.584 469.627 315.52 469.445 315.52 469.232V461.744C315.52 461.531 315.445 461.36 315.296 461.232C315.168 461.083 314.997 461.008 314.784 461.008H302.816C302.603 461.008 302.421 461.083 302.272 461.232C302.144 461.36 302.08 461.531 302.08 461.744V469.232C302.08 469.445 302.005 469.627 301.856 469.776C301.728 469.904 301.557 469.968 301.344 469.968H298.336C298.123 469.968 297.941 469.904 297.792 469.776C297.664 469.627 297.6 469.445 297.6 469.232Z" fill="#E1011C"/>
<defs>
<clipPath id="clip0_64_1373">
<rect width="250" height="222.222" fill="white" transform="translate(75 100.998)"/>
</clipPath>
<clipPath id="clip1_64_1373">
<rect width="60" height="60" fill="white" transform="translate(209 70.998)"/>
</clipPath>
</defs>
</svg>
